<?xml version="1.0" encoding="UTF-8"?><svg id="a" xmlns="http://www.w3.org/2000/svg" viewBox="0 0 730.03 1112.3"><defs><style>.b{fill:none;fill-rule:evenodd;stroke:#000;stroke-miterlimit:10;}</style></defs><path class="b" d="M179.35,884.08c-6.31,10.27-13.27,21.36-19,30-3.23,4.87-6.1,9.52-9,15-3.93,7.43-7.26,15.1-10,23,1.83,2.21,3.5,4.55,5,7,2.68,4.38,3.87,8.33,6,13,2.07,4.54,4.14,7.57,5,12,1.18,6.12,.48,11.08-1,15-1.64,4.35-4.46,8.16-8,11-3.27,2.63-6.21,3.7-10,5-3.83,1.32-8.13,2.81-11,4-3.84,1.59-7.41,3.33-10,5-6.96,4.47-11.18,9.63-15,15-5.62,7.89-10.16,15.44-14,23-1.65,3.25-5.71,11.23-6,12-.79,2.09-3.12,7.76-7,12-.6,.65-1.29,1.33-2,2-1.78,1.67-3.75,3.27-5,4-2.33,1.36-4.69,1.94-7,3-.73,.33-1.53,.72-2,1-2.79,1.67-4.06,3.65-6,6-2.86,3.46-5.36,5.02-7,5-.11,0-2.56-.04-4-2-1.21-1.65-1.26-4.03-.11-6.09m13.64-15.49c-3.74,2.24-6.97,5.07-9.53,8.58-.79,1.08-1.99,3.15-3,5-1.4,2.56-3.58,5.86-6,9-.59,.76-1.84,2.25-4,3-1,.35-4.86,1.45-7-1h0s-.89-1.36-1-3c-.13-2.01,1.04-3.6,2-5,1.19-1.74,1.79-3.27,3-5,1.28-1.83,2.86-3.55,4-5,1.41-1.81,2.39-3.37,4-5,1.51-1.53,3.19-2.86,5-4m-16,28c-.89,.85-1.9,1.52-3,2-1.15,.5-2.23,.7-2.93,.72-1.46,.03-2.57-.39-3.07-.72-.63-.42-1.49-1.35-2-3-.4-1.3-.4-2.72,0-4,.45-1.46,1.46-2.46,3-4,1.23-1.23,1.39-1.32,2-2,1.69-1.87,1.92-3.41,3-6,1.6-3.84,3.57-6.45,4-7,1.49-1.93,3.18-3.6,5-5,.96-.73,1.96-1.4,3-2m-20,30c-.61,.46-1.28,.8-2,1-.55,.15-1.68,.44-3,0-.36-.12-1.56-.54-2.37-1.79-.12-.19-.98-1.55-.63-3.21,.21-.99,.7-1.76,2-3,.68-.65,1.43-1.41,2-2,.74-.77,1.51-1.77,2.27-2.92,.56-.84,1.16-1.94,1.73-3.08,.13-.26,.91-2.15,1.6-3.24,.99-1.56,2.5-2.93,3.12-3.46,1.86-1.58,4.27-4.1,6.28-6.3m-19,24c-2.69,1.04-5.6,.11-7-2-1.4-2.12-.83-4.59,0-6,.62-1.05,1.63-1.76,2-2,1.31-.85,2.84-2.11,4-3,2.08-1.6,2.99-3.37,4-5,2.68-4.33,6.53-6.93,10-11,2.53-2.96,6.55-8.93,10-14,1.4-2.06,3.21-4.69,4-6,5.8-9.64,9.32-22.8,10-26,2.03-9.54,10.85-29.21,17-46,5.53-15.07,10.68-29,17-41,4.2-7.97,8.33-14.77,12-23,5.1-11.43,8.45-22.5,12-36,2.14-8.15,4.53-17.49,6-24,2.65-11.78,9.06-34.87,14-53,8.64-31.68,19.37-66.66,26-93,2.67-10.6,9.18-33.74,14-51,2.63-9.41,5.47-18.33,9-28,3.99-10.93,8.64-20.21,13-31,4-9.91,6.55-16.44,13-24,7.59-8.9,15.71-13.15,28-20,4.82-2.68,9.13-5.41,14-8,15.02-8,29.33-14.54,44-21,16.58-7.3,30.56-15.38,47-23,11.93-5.53,34.27-15.27,48-22,11.34-5.56,21.7-11.36,33-17,25.89-12.93,50.57-19.86,73-33,5.58-3.27,10.7-6.23,17-9,5.53-2.43,11.18-3.98,17-7,0,0,5.5-2.57,13-7,3.36-1.99,5.12-3.18,7.02-4.89,2.89-2.6,4.59-5.06,5.98-7.11,1.47-2.17,2.68-3.99,3.72-5.61,2.31-3.57,3.44-5.38,5.28-8.39,5.95-9.72,14.17-23.14,25.61-33.33,3.94-3.51,7.06-5.97,7.06-5.97,5.15-4.06,7.37-5.11,11.33-8.7,2.17-1.96,4.23-3.98,6-6,9.18-10.45,10.26-18.96,16-32,.98-2.22,2.48-5.92,3-10,.53-4.14-.37-6.85,0-11,.39-4.37,2.04-6.61,2-11-.05-5.74-2.35-8.59-4-14-.87-2.85-1.4-10.05-1-17,.52-8.86,3.58-21.25,11-35,3.92-7.27,8.29-15.2,11-18,.69-.71,3.22-3.45,4-7,.81-3.67-.3-6.47-1-9-1.43-5.18-.27-8.59-1-14-.43-3.21-.93-5.77-1-9-.08-3.71,.26-7.38,1-11-.76,2.65-1.42,5.28-2,8-.97,4.57-1.58,9.1-2,13-.68,6.26-2.56,14.31-4,22-1.01,5.37-2.41,13.24-4,23"/><path class="b" d="M620.75,250.69c-1.27,6.2-2.72,12.25-4.4,18.39-3.17,11.56-8.48,25.96-14,40-.56,1.44-1.13,2.87-1.7,4.3-2.1,5.29-3.79,9.44-4.3,10.7-3.69,9.04-9.13,21.38-9.93,23.18"/><path class="b" d="M502.35,426.08c3.51-10.86,7.12-21.35,11-32,3.6-9.87,10.49-27.12,16-41,1.53-3.85,3.24-7.95,5-12,2.65-6.13,5.82-13.12,8-17,1.72-3.05,3.63-6.38,5-9,1.01-1.94,2.01-3.94,3-6,3.38-7.03,7.51-17.01,11-26,2.51-6.47,4.43-12.56,7-19,1.05-2.63,2.13-5.7,3-9,.97-3.71,1.65-7.72,2-11,1.74-16.52,5.18-135.81,24-175,3.75-7.81,8.65-14.23,14-19,4.72-4.21,10.17-7.6,16-10,5.12-2.11,10.5-3.45,16-4,8.4,.35,16.74,1.35,25,3,7.56,1.51,14.91,3.51,22,6,7.63,2.68,16.43,5.88,20,8,1.72,1.02,8.17,4.54,15,5,1.34,.09,2.67,.09,4,0-2.21-6.66-4.18-13.23-6-20-3.36-12.51-6.02-25.18-8-38"/><path class="b" d="M426.85,461.16c-.68-.04-1.74-.11-3.04-.2-9.75-.68-24.31-2.07-41.86-5.26-8.97-1.63-15.73-3.18-17.61-3.63-19.15-4.54-37.28-10.19-50-16-2.38-1.09-36.6-16.14-62-17-8.38-.28-15.55,1.06-22,4-4.67,2.13-9.09,5.16-13,9-5.08,4.99-8.81,10.85-11,17-1.71,4.81-2.84,12.65-2,22,.87,9.63,3.14,17.46,6,25,2.69,7.1,5.79,13.07,9,20,3.15,6.82,5.71,13.29,9,20,2.47,5.04,4.7,9.21,5.28,10.29,1.43,2.66,2.7,4.93,3.72,6.71"/></svg>