<?xml version="1.0" encoding="UTF-8"?><svg xmlns="http://www.w3.org/2000/svg" viewBox="0 0 281.57 887.32"><defs><style>.d{fill:none;fill-rule:evenodd;stroke:#000;}</style></defs><g id="a"/><g id="b"><g id="c"><path class="d" d="M129.3,886.3c-17.92-.23-35.74-1.77-53.42-4.62-14.6-2.35-29.01-5.58-43.22-9.69-12.31-1.75-25.84-5.99-30.61-14.09-1.63-2.76-1.71-5.09-1.4-6.22,.86-3.18,4.46-5.2,8.29-5.96,1.75-3.33,3.51-6.65,5.26-9.98,4.87-3.41,9.75-6.81,14.62-10.22,3.88-4.36,.8-10.78,3.65-16.66,.31-.41,.62-.82,.93-1.22,4.97-7.05,13.09-7.11,19.84-12.52,5.29-4.24,7.31-16.46,13.83-22.2,.08-.16,.15-.32,.23-.49,10.32-6.19,20.65-12.38,30.97-18.57,3.65-1.37,7.29-2.75,10.94-4.12,1.6-2.37,1.94-47.01,.38-50.19-7.7-2.66-20.31-10.77-12.09-21.78,2.55-3.41,18.45-7.46,13.06-14.98-7.49-1.73-14.97-3.45-22.46-5.18-2.29-2.02-4.59-4.04-6.88-6.06-5.9-2.54-17.46-.69-20.09-6.44-2.98-6.51,.58-12.6,1.23-17.56,.36-2.75-5.03-30.5-5.92-33.94-1.94-7.55,3.68-11.9,2.65-18.31-3.64-10.63-7.27-21.26-10.91-31.89-3.32-18.89,2.56-57.46,9.77-67.71,5.66-8.05,9.95-18.48,15.88-26.58,8.32-11.36,29.13-29.27,32.25-43.33,3.43-15.41,7.42-27.96,9.42-44.18,.55-9.54,1.11-19.08,1.66-28.61,2.15-3.5,4.3-6.99,6.45-10.49,4.93-1.09,9.87-2.18,14.8-3.26,.54-106.21,1.08-212.42,1.61-318.63l2.4-.06m-13.13,885.75c18.32,.92,36.21,.63,53.38-.97,7.68-.72,15.24-1.68,22.94-2.9,14.6-2.31,29.03-5.51,43.25-9.58,12.31-1.72,25.85-5.92,30.65-14.02,1.63-2.76,1.72-5.09,1.42-6.21-.85-3.18-4.44-5.21-8.27-5.99-1.75-3.33-3.49-6.66-5.24-9.99-4.86-3.42-9.73-6.84-14.59-10.26-3.87-4.37-.77-10.78-3.61-16.67l-.93-1.23c-4.96-7.07-13.07-7.14-19.81-12.57-5.28-4.25-7.27-16.48-13.77-22.24-.08-.16-.15-.32-.23-.49-10.31-6.21-20.62-12.43-30.92-18.65-3.64-1.38-7.28-2.77-10.93-4.15-1.6-2.38-1.82-47.01-.25-50.19,7.71-2.64,20.34-10.72,12.14-21.74-2.54-3.41-18.43-7.51-13.02-15.02,7.49-1.71,14.98-3.42,22.47-5.12,2.3-2.02,4.6-4.03,6.89-6.05,5.91-2.52,17.46-.65,20.11-6.39,3-6.51-.55-12.61-1.18-17.56-.35-2.75,5.11-30.48,6.01-33.92,1.96-7.55-3.65-11.91-2.6-18.32,3.66-10.62,7.33-21.24,10.99-31.86,3.37-18.88-2.41-57.47-9.6-67.74-5.64-8.06-9.9-18.5-15.81-26.62-8.29-11.38-29.05-29.34-32.14-43.41-3.39-15.42-7.35-27.98-9.31-44.2-.53-9.54-1.06-19.08-1.59-28.62-2.14-3.5-4.28-7-6.42-10.51-4.93-1.1-9.86-2.2-14.79-3.3-.22-106.44-.44-212.88-.66-319.32-.48,.01-.96,.02-1.44,.04"/></g></g></svg>