<?xml version="1.0" encoding="UTF-8"?><svg xmlns="http://www.w3.org/2000/svg" viewBox="0 0 209.59 528.81"><defs><style>.d{fill:none;fill-rule:evenodd;stroke:#000;stroke-miterlimit:10;}</style></defs><g id="a"/><g id="b"><g id="c"><path class="d" d="M208.71,211c-2.02,8.26-4.81,245.79-5.39,291.18-12.59,7.22-25.81,13-39.6,17.28-38.07,11.8-79.52,11.8-117.6,0-13.78-4.28-27.01-10.06-39.6-17.28C5.28,438.09,.99,212.76,.52,207.7c-.02-.26-.12-2.29,.48-3.84,.43-1.12,1.18-2.2,2.16-3.12,3.86-3.62,42.93-35.1,58.08-47.28,2.17-6.61,3.45-13.46,3.84-20.4,.38-6.76-.1-13.52-1.44-20.16-7.8-6.51-10.36-13.59-8.4-18.24,.58-1.38,2.47-3.61,6-5.28,7.48-3.54,16.71-.29,20.64-4.56,2.13-2.31,2.35-6.16,1.2-11.04-11.95-6.7-19.57-19.1-19.92-32.64-.46-18.06,11.68-29.22,18.72-33.84,13.83-9.07,32.26-9.07,46.08,0,7.04,4.62,19.18,15.78,18.72,33.84-.34,13.54-7.97,25.94-19.92,32.64-1.15,4.88-.92,8.73,1.2,11.04,3.92,4.26,13.15,.93,20.64,4.56,3,1.45,4.65,3.24,5.28,4.56,2.25,4.72-.54,11.95-7.68,18.96-1.33,6.64-1.81,13.4-1.44,20.16,.39,6.94,1.68,13.79,3.84,20.4,19.08,15.77,54.11,44.81,57.12,47.28,.45,.37,1.89,1.68,2.64,3.36,1.34,2.98,.45,6.48,.35,6.9Z"/></g></g></svg>