<?xml version="1.0" encoding="UTF-8"?><svg xmlns="http://www.w3.org/2000/svg" viewBox="0 0 172.69 338.98"><defs><style>.d{fill:none;fill-rule:evenodd;stroke:#000;}</style></defs><g id="a"/><g id="b"><g id="c"><path class="d" d="M.97,317.57v-79C-.78,170.63-.63,114.89,57.97,92.57V57.57h9v-11c-7.29-7.45-9.67-18.44-6.16-28.19,3.57-9.89,12.62-16.88,23.16-17.81,8.71-.6,17.79,2.38,23.52,9.36,7.86,9.58,7.83,25.02-1.52,36.64v11h10c-.33,12-.67,24-1,36,12.96,4.55,22.94,10.92,30.61,18.93,30.35,31.68,27.54,77.12,25.39,143.07-.68,20.75-1,41.09-1,62-10.78,5.84-22.13,10.53-34,14-27.2,7.95-57.14,9.14-87,3-16.6-3.42-32.67-9.11-48-17Z"/></g></g></svg>