<?xml version="1.0" encoding="UTF-8"?><svg xmlns="http://www.w3.org/2000/svg" viewBox="0 0 297.44 278.2"><defs><style>.d{fill:none;fill-rule:evenodd;stroke:#000;stroke-miterlimit:10;}</style></defs><g id="a"/><g id="b"><g id="c"><path class="d" d="M285.89,236.61c-11.52,17.96-48.42,38.55-113,41-22.94,.87-70.5-4.45-118-26C21.02,236.25,6.02,221.36,1.89,204.61c-1.87-7.57-1.96-15.75,.37-22.94,9.94-30.78,59.11-40.77,87.63-48.06-15.61-10.82-46.18-11.06-52-31-10.79-36.93,59.04-37.38,80-47-1.34-.34-2.68-.67-4-1-9.31-2.31-16.64-3.94-22.66-7.71-8.79-5.5-13.59-11.36-13.34-17.29,.08-1.93,.68-3.78,2-6,4.13-7,10.42-10.38,14-12,5.56-2.53,31.81-12.27,57-11,20.62,1.04,41.18,5.53,61,13,4.06,2.5,7.07,6.38,8,11,.53,2.67,.38,7.4-3,13-1.97,3.25-8.67,9.25-19,13-5.76,2.08-11.78,3.42-18,4,2,.33,4,.66,6,1,32.18,8.21,84.76,7.53,85,47-11.96,15.83-27.36,21.65-48,29v1c20.6,2.87,39.64,11.5,54,26,11.94,12.06,17.55,24.98,19,32,3.86,18.81-3.75,36.24-10,46Z"/></g></g></svg>