<?xml version="1.0" encoding="UTF-8"?><svg xmlns="http://www.w3.org/2000/svg" viewBox="0 0 307.49 309.09"><defs><style>.d{fill:none;fill-rule:evenodd;stroke:#000;}</style></defs><g id="a"/><g id="b"><g id="c"><path class="d" d="M197.88,.83c19.41,1,38.22,2.14,58.56,11.73,13.7,6.46,35.47,16.72,36.26,32.12,.98,19.22-31.27,36.04-47.62,42.04-6.71,2.46-12.64,3.8-17.04,4.56,9.98,2.11,18.25,4.34,24.36,6.15,12.35,3.64,18.78,5.58,26.67,10.07,7.88,4.49,13.07,7.44,17.19,13.63,8.52,12.83,4.85,28.16,3.56,32.59-4.04,13.87-14,21.53-18.37,24.89-5.72,4.4-11.04,6.68-18.96,10.07-15.91,6.82-23.66,7.1-23.7,9.48-.08,4.46,27.31,1.49,48.39,18.64,2.47,2.01,21.08,17.15,19.76,33.51-1.96,24.32-46.88,38.01-69.93,45.04-25.12,7.66-86.96,25.54-158.81,0-12.4-4.41-79.05-28.09-77.66-58.39,.88-19.19,28.8-34.07,31.68-35.76,19.76-11.56,39.1-11.72,47.52-11.28,5.08,.27-34.33-5.86-46.86-28.8-5.48-10.03-4.55-20.4-4.36-22.22,1.29-12.56,8.63-20.7,12.67-25.17,11.63-12.89,26.19-16.98,32.79-18.37-34.55-2.4-58.43-13.07-61.07-27.56-1.92-10.51,7.81-20.41,14.81-27.38C56.74,11.5,97.88,7.61,156.99,2.01c12.8-1.21,25.44-1.98,40.89-1.19Z"/></g></g></svg>