<?xml version="1.0" encoding="UTF-8"?><svg id="a" xmlns="http://www.w3.org/2000/svg" viewBox="0 0 781.06 786.56"><defs><style>.b{fill:none;fill-rule:evenodd;stroke:#000;stroke-miterlimit:10;}</style></defs><path class="b" d="M15.12,.5H670.32c6.65,3.79,19.09,12.14,28.08,27.6,4.78,8.22,7.15,15.99,8.4,21.84,1.76,2,3.52,4,5.28,6,.88,1.28,1.76,2.56,2.64,3.84,1.52,2.4,3.04,4.8,4.56,7.2,2.38,9.61-.45,27.4-2.88,35.76,18.39,27.99,32.94,59.17,46.08,92.88,2.88,10.08,5.76,20.16,8.64,30.24,3.07,10.16,6.89,20.04,8.88,30.72,1.19,6.4,.27,14.02-.72,19.92-.64,5.36-1.28,10.72-1.92,16.08-3.6,13.84-7.2,27.68-10.8,41.52-11.59,39.32-30.39,72.27-49.44,104.64-9.3,15.81-16.62,32.47-25.92,48.48-8.75,15.05-15.7,31.41-22.8,48-2.89,6.74-7.97,14.74-8.88,22.56,7.25,2.36,13.82,8.03,20.16,11.76,7.25,4.27,15.91,6.91,21.84,12.48,2.74,2.57,7.55,8.84,4.32,14.16-2.68,4.42-10.69,4.72-16.08,2.4-6.16-3.36-12.32-6.72-18.48-10.08-8.08-3.28-16.16-6.56-24.24-9.84-.24,.32-.48,.64-.72,.96-.49,1.05-.16,2.59,.24,3.36,7.93,1.57,13.16,5.76,19.68,8.64,11.3,4.99,22.5,9.33,32.16,15.84,4.14,2.79,8.43,9.2,4.56,15.6-1.66,2.75-5.35,5.98-10.08,4.08-11.36-4.56-21.35-11.55-33.84-15.84-3.35-1.15-10.18-4.12-13.2-2.16-.4,2.08-.8,4.16-1.2,6.24,10.66,6.02,23.48,10.77,33.84,17.28,4.29,2.7,9.94,6.63,5.76,13.44-6.48,10.56-25.85-1.94-33.36-5.76-2.27-1.15-6.84-4.03-9.36-3.12-.64,1.76-1.28,3.52-1.92,5.28,1.52,.64,3.04,1.28,4.56,1.92,4.38,3.23,4.16,10.21-1.2,12.24-2.32,.16-4.64,.32-6.96,.48-9.91,13.63-3.71,50.34-.96,67.44,1.78,11.07-3.25,30.91-10.56,32.64-9.95,2.35-8.4-11.4-8.4-19.44,0-11.18-3.79-39.86-10.56-42.72-10.14-2.43-7.59,14.45-8.88,22.32-2.68,16.35-2.95,32.49-6,48-2.03,10.29-1.1,17.74-11.28,19.68-10.81,2.06-10.18-9.65-8.64-17.76,1.04-8,2.08-16,3.12-24-.32-6.16-.64-12.32-.96-18.48,1.04-6.67,3.23-18.41-.48-23.76h-1.2c-7.04,3.78-8.68,11.83-11.76,19.68-5.35,13.64-10.02,28.13-14.4,43.44-2.29,8-3.07,24.23-15.12,21.6-10.38-2.26-8.31-18.07-6.24-28.08,1.44-5.92,2.88-11.84,4.32-17.76,.91-5.19-.11-10.11,1.2-14.4,3.74-12.28,10.64-22.41,14.88-35.04-.24-.48-.48-.96-.72-1.44-6.98,.22-12.72,6.96-16.56,10.8-10.08,10.08-18.96,23.23-26.64,35.52-1.52,3.04-3.04,6.08-4.56,9.12-3.04,4.32-14.59,13.8-19.68,5.52-6.12-9.96,2.27-21.94,5.52-28.08,6.89-12.99,14.74-24.64,23.52-35.76,6.11-7.74,13.31-14.47,18.48-23.28,1.94-3.3,10.79-31.29,3.12-35.04-3.03-.66-8.16,2.63-10.56,4.08-8.86,5.37-14.45,12.01-27.12,14.16-9.12,1.55-19.68-1.72-21.84-7.44-2.93-7.76,11.73-9.27,15.84-11.76,3.84-3.2,7.68-6.4,11.52-9.6,9.04-6.03,17.29-9.96,24-18.24,1.3-1.6,3.09-2.05,4.08-4.08-3.24-8.94-18.39-19.75-26.4-24.48-4.4-2-8.8-4-13.2-6-22.02-12.84-45.68-23.27-71.04-33.12-13.53-5.25-27.8-8.16-42.24-12.48-23.39-7-46.92-14.03-69.36-21.12-9.92-3.28-19.84-6.56-29.76-9.84-26.76-11.8-48.84-28.65-70.56-45.6-7.91-6.17-13.73-15.09-19.92-23.04-5.12-5.36-10.24-10.72-15.36-16.08-4.64-6.16-9.28-12.32-13.92-18.48-10.93-14.25-22.44-28.23-33.36-42.72-3.52-4.67-12.28-12.9-12.48-19.92-2.4-1.12-4.8-2.24-7.2-3.36-3.04-.8-6.08-1.6-9.12-2.4-1.34-.66-3.51-1.77-6.07-3.32-6.33-3.83-9.27-6.86-15.88-11.86-2.1-1.59-5.33-3.95-9.48-6.66-1.6-4-3.2-8-4.8-12-1.12-5.04-2.24-10.08-3.36-15.12l-3.6-16.08c-2.4-4.24-4.8-8.48-7.2-12.72-4.12-7.05-5.87-15.52-9.6-23.28-1.43-3.52-3.68-8.67-6.96-14.64-7.9-14.39-13.02-19-16.32-29.76-1.28-4.16-.04-10.11-.96-14.88-2.81-14.65-5.41-28.68-2.64-46.08,.81-5.09-1.65-10.13-.24-14.88,2.88-9.68,13.6-14.29,15.84-24-.72-3.68-1.44-7.36-2.16-11.04-.13-8.74,1.97-18.53,.48-28.08-1.44-9.2-1.82-16.07-.48-24.48V.5Z"/><path class="b" d="M588.24,160.1c-1.36,5.68-2.72,11.36-4.08,17.04-2.85,11.16-5.3,22.13-8.88,32.64-1.31,3.84-8.17,15.35-6.96,19.44,1.28,4.38,1.93,8.89,1.92,13.44,0,3.15-.33,6.27-.96,9.36,.56,1.52,1.12,3.04,1.68,4.56,.72,2.48,1.44,4.96,2.16,7.44,1.92,7.84,3.84,15.68,5.76,23.52-11.52,10.08-23.04,20.16-34.56,30.24-7.74,10.84-14.71,22.23-24.96,30.48-11.88,9.57-25.34,17.71-37.44,27.12-5.36,4.64-10.72,9.28-16.08,13.92-6.24,4.72-12.48,9.44-18.72,14.16-4.56,4.32-9.12,8.64-13.68,12.96-9.65,7.27-26.17,9.67-38.88,13.68-4.99,1.57-11.4,1.72-14.64,5.04,.08,.4,.16,.8,.24,1.2,2.06,4.18,8.76,5.81,12.72,8.16,12.98,7.72,25.69,13.93,40.8,20.16,10.32,5.04,20.64,10.08,30.96,15.12,10.8,4.48,21.6,8.96,32.4,13.44,12.58,5.52,22.66,12.57,38.16,15.36,4.58,.82,9.49-.65,12.96-1.44,8.24-1.84,16.48-3.68,24.72-5.52,7.18-1.63,29.69,1.67,32.4-.24,2.73-1.92,5.71-17.64,7.2-21.84,6.96-18.64,13.92-37.28,20.88-55.92,7.14-18.3,10.58-38.87,16.8-58.8,5.52-15.2,11.04-30.4,16.56-45.6,3.61-9.16,6.83-18.18,10.32-27.84,1.28-3.55,4.18-7.86,3.12-13.44-2.52-13.23-13.8-19.48-26.16-35.52-3.11-4.03-5.9-8.35-8.4-12.96-2.64-4.88-5.28-9.76-7.92-14.64-3.84-5.88-7.46-11.71-11.04-17.76-4.22-7.15-8.16-14.24-12-21.6-1.2-1.28-2.4-2.56-3.6-3.84-10.24,.07-14.79-9.11-22.8-11.52Z"/></svg>