<?xml version="1.0" encoding="UTF-8"?><svg id="a" xmlns="http://www.w3.org/2000/svg" viewBox="0 0 1698.13 2244.02"><defs><style>.b{fill:none;fill-rule:evenodd;stroke:#000;stroke-miterlimit:10;}</style></defs><path class="b" d="M1658.58,1265.5c.57,6.56,.52,12.78,.52,12.78-.59,18.46-7.11,24.62,3.48,76.22,4.07,19.85,6.86,81.62,9,129,1.74,38.54,.99,80.17,1,122,.01,81.02,7.89,153.01,10,234,1.73,66.57-.19,128.45,2,195,2.24,68.04,6.5,134.16,13,201h-247.33c1.11-36.19-2.52-99.92-39.11-164.44-11.22-19.79-23.63-36.27-35.56-49.78,3.8,51.58-3.17,88.73-10.67,113.78-5.31,17.72-16.21,47.17-5.33,79.11,3.23,9.48,7.53,16.71,10.67,21.33H359.58c13.24-159.06,12.35-239.95-2.67-242.67-15.79-2.85-47.2,80.7-94.22,250.67-87.37-3.33-174.74-6.67-262.11-10,7.5-49.99,16.19-101.57,26.24-154.62,9.64-50.86,19.96-100.01,30.76-147.38,10-149.65,20-299.35,30-449,3.33-75.33,6.67-150.67,10-226,4.67-30.11,9.33-60.22,14-90.33,1.29-18.95,4.85-45.55,15-75.67,24.32-72.16,63.93-124.15,91-135,49.16-19.7,250.99-71.45,264-109,6-10.67,12-21.33,18-32-34.15-71.69-42.85-138.59-22-199,.42-1.22,1.12-3.15,1.69-4.75,13.23-36.71,27.9-70.29,42.75-95.47,18.85-31.96,42.16-61.3,69.56-87.78,41.6-82.95,95.04-158.96,159-226C826.22,122.22,915.11,57.06,1013.58,8.5c16-2.67,32-5.33,48-8,35.73-.07,84.17,.6,108,17,9.67,11,19.33,22,29,33,17.33,2,34.67,4,52,6,13.71,11.57,26.72,23.9,39,37,54.78,58.4,88.93,134.22,101,165,19.36,49.35,97.24,248.04,102,258,4.66,9.74,17.63,40.35,24,66,9.59,38.6,11.68,71.39,9,100-3.15,33.63-16.14,70.06-32.69,113.06-14.85,38.59-28.99,76.11-14.31,115.94,3.33,9.05,13.77,26.54,28,42,21.88,23.78,41.58,27.81,63,52,13.94,15.75,22.96,41.25,35,71,9.83,24.27,16.01,35.86,20.11,46.42,0,0,27.75,71.3,33.89,142.58Z"/></svg>