<?xml version="1.0" standalone="no"?>
<!DOCTYPE svg PUBLIC "-//W3C//DTD SVG 20010904//EN"
 "http://www.w3.org/TR/2001/REC-SVG-20010904/DTD/svg10.dtd">
<svg version="1.0" xmlns="http://www.w3.org/2000/svg"
 width="218.000000pt" height="218.000000pt" viewBox="0 0 218.000000 218.000000"
 preserveAspectRatio="xMidYMid meet">
<metadata>
Created by potrace 1.14, written by Peter Selinger 2001-2017
</metadata>
<g transform="translate(0.000000,218.000000) scale(0.100000,-0.100000)"
fill="#000000" stroke="none">
<path d="M740 2098 c-12 -40 -29 -98 -39 -128 -15 -43 -18 -74 -14 -148 4 -58
1 -109 -7 -136 -11 -41 -10 -48 21 -117 87 -199 109 -360 68 -508 -91 -334
-101 -366 -164 -506 -59 -131 -135 -433 -135 -537 0 -17 17 -18 215 -18 214 0
215 0 219 22 3 13 12 93 21 178 24 237 35 333 40 340 2 3 11 96 20 205 10 110
20 204 24 208 13 13 30 -120 36 -268 6 -187 45 -391 113 -602 l26 -83 263 0
262 0 -36 72 c-20 40 -65 120 -101 178 -36 58 -76 132 -90 165 -13 33 -35 83
-49 110 -33 66 -69 170 -77 220 -3 22 -24 94 -47 160 l-42 120 -1 273 -2 273
-62 62 c-35 34 -90 97 -123 140 l-59 77 20 28 c22 30 19 62 -7 62 -8 0 -29
-11 -47 -25 -79 -60 -72 -8 9 67 25 22 45 49 45 60 0 26 -59 78 -88 78 -12 0
-40 -9 -62 -20 -52 -27 -59 -25 -58 10 1 36 -17 60 -47 60 -20 0 -26 -10 -45
-72z"/>
</g>
</svg>
