<?xml version="1.0" encoding="UTF-8"?><svg id="a" xmlns="http://www.w3.org/2000/svg" viewBox="0 0 595.43 448.61"><defs><style>.b{fill:none;fill-rule:evenodd;stroke:#000;stroke-miterlimit:10;}</style></defs><path class="b" d="M492.1,.51c22.85-.26,46.35,8.64,55.44,20.88,1.84,4.48,3.68,8.96,5.52,13.44,3.57,4.78,8.97,7.25,10.08,14.64,1.45,9.68-8.58,9.57-7.2,18.96,2.16,6,4.32,12,6.48,18,1.33,6.65-3.67,26.59-5.76,34.08-3.68,5.84-7.36,11.68-11.04,17.52,16.81,23.98,42.07,22.5,48.24,60.48,.82,5.02,1.93,13.35,0,18.24-8.58,21.68-59.78,16.43-83.28,10.32-21.2-7.44-42.4-14.88-63.6-22.32-30.05-8.87-68.44-15.75-100.8-20.4-9.2,1.28-18.4,2.56-27.6,3.84-11.4-3.37-25.57-6.57-42.02-8.17-15.78-1.54-29.76-1.22-41.26-.23,38.88,17.12,77.76,34.24,116.64,51.36,20.67,8.69,46.82,12.05,63.36,24.96,20.49,15.99,33.97,43.88,50.64,63.84,5.04,5.76,10.08,11.52,15.12,17.28,.88,6.08,1.76,12.16,2.64,18.24,4,7.92,8,15.84,12,23.76,3.08,10.31,.5,46.82-3.6,54-4.61,1.05-6.77-1.77-9.12-4.32l-.72,.24c-2.85,4.68-3.72,15.68-8.16,18.96-4.71-.02-5.83-2.27-7.92-4.8-14.92,2.04-14.02-9-11.28-19.44-11.59-4.96-3.9-15.78-5.04-25.92l-.24-.24c-20.66,2.89-17.65-25.41-23.76-39.6-3.35-7.77-15.28-12.56-19.92-20.4-6.67-11.26-7.6-29.37-15.6-39.6-.4-.48-.8-.96-1.2-1.44-.4-.4-.8-.8-1.2-1.2-31.66-16.92-83.91-17.88-124.8-24.96-25.18-4.36-50.52-10.52-71.76-19.44-12-5.68-24-11.36-36-17.04-10.88-3.36-21.76-6.72-32.64-10.08-4.91-3.29-8.97-50.47-7.44-61.68,1.76-9.92,3.52-19.84,5.28-29.76-3.2-1.28-6.4-2.56-9.6-3.84-24.11-13.98-53.48-30.61-80.64-40.8-9.76-2.24-19.52-4.48-29.28-6.72-.16-.64-.32-1.28-.48-1.92,14.81-8.43,30.59-14.16,44.4-23.04,19.9-12.81,37.07-28.82,61.68-38.16,9.54-3.62,19.2-6.02,28.56-7.2,4.64-.58,9.51-.9,14.64-.96,8.21-.09,16.38,.55,24.48,1.92,10.28,.76,20.43,1,30.48,.72,8.46-.23,19.46-1.83,30.24-1.2,21.46,1.25,42.67,11.14,54.96,13.92,14.88,3.36,31.24,5.11,46.32,4.08,5.21-.36,13.77-.82,21.6-.24,7.41,.55,14.7,1.76,21.84,3.6l9.96-8.34c10.36-4.34,20.72-8.68,31.08-13.02,5.44-.24,10.88-.48,16.32-.72,11.84-2.64,23.68-5.28,35.52-7.92,6.48-.72,12.96-1.44,19.44-2.16Z"/></svg>