<?xml version="1.0" encoding="UTF-8"?><svg id="a" xmlns="http://www.w3.org/2000/svg" viewBox="0 0 4035.69 3473"><defs><style>.b{fill:none;fill-rule:evenodd;stroke:#000;stroke-miterlimit:10;}</style></defs><path class="b" d="M3583.68,.5c-6.54,37.67-11.94,79.81-14.85,125.84-2.82,44.64-2.85,85.92-1.26,123.16-1.33,15-2.67,30-4,45,7.33,13.33,14.67,26.67,22,40,17.77,24.57,41.09,56.21,52,85,1,9,2,18,3,27,50.83,61.7,79.72,115.62,96.35,152.44,7.65,16.93,13.84,32.76,18.32,44.23,26.84,68.65,40.26,102.97,40,130.67-.39,41.58-3.55,55.72-5.33,93.33-2.06,43.6,5.62,105.84,50.67,184.33,20.71,18.53,83.64,105.97,103,116,29,.33,58,.67,87,1v903c0,83.25,13.19,331.67-5,371-9.6-4.1-14.17,14.26-22,19-154.16,93.24-225.09,94.8-407,182-99.48,47.69-142.12,86.51-253.2,110.62-33.16,7.2-61.04,10.61-79.8,12.38-19.33,16.38-50.62,47.23-73.67,95.33-19.54,40.79-25.44,77.87-27.33,101.67,22.67,169.67,45.33,339.33,68,509-1076.56-.33-2153.44-.67-3230-1,4.67-38.33,9.33-76.67,14-115,36.16-71.85,38.37-159.66,65-233,27.2-74.9,49.04-134.07,67-211,10.15-43.47,24.94-91.89,32-129,7.96-41.82,61.49-74.26,49-132-11.33-51.67-22.67-103.33-34-155-16.67-42.67-33.33-85.33-50-128-12.02-20.18-28.47-44.04-50.68-68.54-20.41-22.52-40.69-40.07-58.32-53.46,10.39,2.47,25.38,4.8,43.07,3.09,54.75-5.28,118.34-47.49,122.93-105.09,.77-9.73,.87-32.19-16-60-26.33-2.33-52.67-4.67-79-7,6.16-16.6,16.58-42.01,32.95-71.22,23.16-41.33,39.58-57.01,63.26-95.58,28.85-47,24.49-53.4,44.79-91.2,40.5-75.41,121.93-126.5,180-183,95.21-92.64,35.49-110.2,154.58-268.86,46.28-61.66,149.28-184.22,194.3-266.45,12.61-23.02,23.97-46.59,23.97-46.59,19.79-41.2,32.71-75.7,42.8-102.92,18.57-50.08,40.06-116.89,57.34-198.18,5.86-27.68,15.48-66.28,31.52-110.94,10.76-29.95,61.16-164.89,188.3-305.5,33-36.49,85.21-93.47,168.95-148.65,7.8-5.14,115.5-75.11,224.23-97.91,42.4-8.89,79.46-9.46,83.17-9.5,29.71-.31,55.7,2.67,76.83,6.5,35.69-3.11,77.41-4.3,123.79-1.02,37.94,2.68,72.22,7.88,102.21,14.02,160.35,59.43,252.86,144.38,298,193,42.46,45.74,69.66,85.5,88.18,113.44,17.39,26.23,98.46,151.34,144.05,343.68,12.8,53.98,19.75,100.41,23.77,134.88,4.22,67.61,5.8,141.86,2.92,221.76-2.56,71.1-8.32,137.39-15.92,198.24,98.33-9,196.67-18,295-27,69.12,8.91,165.35,31.74,262,93,25.52,16.17,48.11,33.15,68,50,30.87-84.72,41.69-154.86,46-202,6.17-67.49-.25-96.14-14-315-6.8-108.24-10.16-162.69-8-178.67,13.63-100.87,53.88-157.42,23-225.33-11.14-24.49-21.53-28.48-45-57-33.75-41.01-72.93-106.5-92-212-22.92-7.48-80.85-29.74-127.98-88.47-46.53-58-55.99-118.5-58.47-142.53h795.56Z"/></svg>